HIERARCHY
ROOT Hips
{
	OFFSET -3.958830 18.904000 13.208200
	CHANNELS 6 Xposition Yposition Zposition Zrotation Yrotation Xrotation 
	JOINT LHipJoint
	{
		OFFSET 0.000000 0.000000 0.000000
		CHANNELS 3 Zrotation Yrotation Xrotation
		JOINT LeftUpLeg
		{
			OFFSET 1.800000 -1.400000 0.085000
			CHANNELS 3 Zrotation Yrotation Xrotation
			JOINT LeftLeg
			{
				OFFSET 2.215000 -6.000000 0.000000
				CHANNELS 3 Zrotation Yrotation Xrotation
				JOINT LeftFoot
				{
					OFFSET 2.500000 -6.900000 0.000000
					CHANNELS 3 Zrotation Yrotation Xrotation
					JOINT LeftToeBase
					{
						OFFSET 0.200000 -0.500000 1.950000
						CHANNELS 3 Zrotation Yrotation Xrotation
						End Site
						{
							OFFSET 0.000000 0.000000 0.000000
						}
					}
				}
			}
		}
	}
	JOINT RHipJoint
	{
		OFFSET 0.000000 0.000000 0.000000
		CHANNELS 3 Zrotation Yrotation Xrotation
		JOINT RightUpLeg
		{
			OFFSET -1.800000 -1.400000 0.085000
			CHANNELS 3 Zrotation Yrotation Xrotation
			JOINT RightLeg
			{
				OFFSET -2.215000 -6.000000 0.000000
				CHANNELS 3 Zrotation Yrotation Xrotation
				JOINT RightFoot
				{
					OFFSET -2.500000 -6.900000 0.000000
					CHANNELS 3 Zrotation Yrotation Xrotation
					JOINT RightToeBase
					{
						OFFSET -0.200000 -0.500000 1.950000
						CHANNELS 3 Zrotation Yrotation Xrotation
						End Site
						{
							OFFSET 0.000000 0.000000 0.000000
						}
					}
				}
			}
		}
	}
	JOINT LowerBack
	{
		OFFSET 0.000000 0.000000 0.000000
		CHANNELS 3 Zrotation Yrotation Xrotation
		JOINT Spine
		{
			OFFSET -0.087000 1.940000 -0.288900
			CHANNELS 3 Zrotation Yrotation Xrotation
			JOINT Spine1
			{
				OFFSET 0.000000 1.950000 0.060000
				CHANNELS 3 Zrotation Yrotation Xrotation
				JOINT Neck
				{
					OFFSET 0.000000 0.000000 0.000000
					CHANNELS 3 Zrotation Yrotation Xrotation
					JOINT Neck1
					{
						OFFSET 0.000000 1.600000 0.340000
						CHANNELS 3 Zrotation Yrotation Xrotation
						JOINT Head
						{
							OFFSET 0.000000 1.667000 -0.240000
							CHANNELS 3 Zrotation Yrotation Xrotation
							End Site
							{
								OFFSET 0.000000 0.000000 0.000000
							}
						}
					}
				}
				JOINT LeftShoulder
				{
					OFFSET 0.000000 0.000000 0.000000
					CHANNELS 3 Zrotation Yrotation Xrotation
					JOINT LeftArm
					{
						OFFSET 2.700000 1.550000 -0.730000
						CHANNELS 3 Zrotation Yrotation Xrotation
						JOINT LeftForeArm
						{
							OFFSET 5.450000 0.000000 0.000000
							CHANNELS 3 Zrotation Yrotation Xrotation
							JOINT LeftHand
							{
								OFFSET 3.450000 0.000000 0.000000
								CHANNELS 3 Zrotation Yrotation Xrotation
								JOINT LeftHandIndex1
								{
									OFFSET 0.750000 0.000000 0.000000
									CHANNELS 3 Zrotation Yrotation Xrotation
									End Site
									{
										OFFSET 0.000000 0.000000 0.000000
									}
								}
							}
						}
					}
				}
				JOINT RightShoulder
				{
					OFFSET 0.000000 0.000000 0.000000
					CHANNELS 3 Zrotation Yrotation Xrotation
					JOINT RightArm
					{
						OFFSET -2.700000 1.550000 -0.730000
						CHANNELS 3 Zrotation Yrotation Xrotation
						JOINT RightForeArm
						{
							OFFSET -5.450000 0.000000 0.000000
							CHANNELS 3 Zrotation Yrotation Xrotation
							JOINT RightHand
							{
								OFFSET -3.450000 0.000000 0.000000
								CHANNELS 3 Zrotation Yrotation Xrotation
								JOINT RightHandIndex1
								{
									OFFSET -0.750000 0.000000 0.000000
									CHANNELS 3 Zrotation Yrotation Xrotation
									End Site
									{
										OFFSET 0.000000 0.000000 0.000000
									}
								}
							}
						}
					}
				}
			}
		}
	}
}
MOTION
Frames: 4
Frame Time: 0.016667
-0.371760 16.228510 0.153420 -2.760701 -21.368333 7.474959 -14.677486 12.666792 2.415920 7.161913 -1.673462 -12.961237 -1.604463 3.891042 10.558415 -0.496164 3.404863 3.665110 0.168930 -0.051360 0.037010 18.634303 -11.894884 3.137710 -6.799797 2.834447 -24.478434 7.582026 -4.776426 14.665531 0.296260 -3.358667 3.342117 0.189570 0.620920 0.204510 -4.516275 1.938866 -6.690033 11.100911 -0.995295 4.151520 -2.623515 -1.254388 -3.730719 3.928170 2.549623 -3.484447 6.210515 -3.121342 19.955493 -6.026220 -1.439860 4.166280 -10.512978 16.584512 -2.278158 -43.871999 5.546388 -4.146243 69.568194 -55.102938 -28.084464 -4.164845 2.798545 -0.155770 0.578140 -0.471790 0.266230 1.973693 -15.324017 1.361833 46.436976 14.341869 2.429364 -92.177969 51.926474 -51.051304 1.712770 -1.340022 -0.249860 0.116790 -0.031000 -0.020810 
-0.368460 16.228860 0.151690 -2.826593 -21.277457 7.378078 -14.672094 12.651961 2.411306 7.232970 -1.671137 -12.940885 -1.618795 3.899771 10.625344 -0.505529 3.417227 3.660578 0.181440 -0.037020 0.043490 18.638129 -11.924004 3.135428 -6.690291 2.799899 -24.255005 7.463525 -4.727684 14.520048 0.295046 -3.362106 3.340591 0.203700 0.625270 0.209280 -4.528183 2.015092 -6.684094 11.194032 -0.884420 4.116260 -2.876657 -1.104620 -3.486545 4.273584 2.598675 -3.525942 6.345868 -3.222930 19.975890 -6.151440 -1.522620 4.129620 -10.693552 16.324093 -2.295187 -43.685098 5.060065 -3.963607 69.944086 -55.156157 -28.475471 -4.171020 2.795914 -0.161630 0.585320 -0.474500 0.269930 1.486846 -15.022644 1.422203 45.207027 15.102458 2.564800 -90.640469 50.691698 -48.698976 1.727924 -1.443315 -0.249000 0.120280 -0.033240 -0.020680 
-0.364020 16.229560 0.149480 -2.887536 -21.180380 7.301345 -14.670353 12.643371 2.409063 7.298871 -1.672432 -12.962412 -1.652327 3.914486 10.703540 -0.517222 3.431813 3.654986 0.192410 -0.023950 0.046720 18.638915 -11.942485 3.132180 -6.594125 2.771791 -24.069295 7.345196 -4.680080 14.388617 0.295489 -3.364252 3.340223 0.218210 0.631040 0.212550 -4.531044 2.060159 -6.681136 11.278386 -0.801407 4.097069 -3.118327 -0.969703 -3.279377 4.613220 2.605732 -3.554505 6.400129 -3.314308 19.992786 -6.252830 -1.632510 4.092450 -10.837591 16.111891 -2.320759 -43.523690 4.619984 -3.786725 70.220734 -55.201825 -28.803180 -4.175877 2.792719 -0.166600 0.592750 -0.478930 0.273770 0.977288 -14.753624 1.463281 43.772059 15.691470 2.597747 -88.767767 49.862015 -46.361458 1.734212 -1.518344 -0.250200 0.125100 -0.033830 -0.020600 
-0.358970 16.230380 0.147550 -2.916113 -21.100422 7.215121 -14.671177 12.640880 2.407846 7.316828 -1.671526 -12.977124 -1.670478 3.927019 10.794209 -0.525945 3.445412 3.650286 0.201890 -0.011970 0.047770 18.637393 -11.955023 3.127318 -6.532153 2.738578 -23.895782 7.226690 -4.633231 14.258708 0.296617 -3.365357 3.340574 0.231540 0.637620 0.215650 -4.527281 2.082604 -6.679130 11.335580 -0.743193 4.084413 -3.372065 -0.853667 -3.066565 4.943500 2.576588 -3.586502 6.382808 -3.381758 20.029973 -6.312330 -1.759330 4.078600 -10.908388 15.921571 -2.335383 -43.409675 4.235783 -3.637690 70.442681 -55.193168 -29.069291 -4.180538 2.791425 -0.172800 0.599890 -0.483440 0.278210 0.417081 -14.489698 1.501420 42.222533 16.156897 2.559178 -86.581830 49.319074 -44.024397 1.737919 -1.577291 -0.250680 0.129920 -0.034260 -0.019020 
